<svg width="24" height="24" viewBox="0 0 24 24" fill="none" xmlns="http://www.w3.org/2000/svg">
<path d="M19.315 4.68496C15.2748 0.644686 8.72524 0.644686 4.68496 4.68496C0.64469 8.72524 0.64469 15.2748 4.68496 19.315C8.72524 23.3553 15.2748 23.3553 19.315 19.315C23.3553 15.2748 23.3545 8.72524 19.315 4.68496V4.68496ZM17.6301 9.44193L11.3437 15.7291C11.1885 15.8842 10.9781 15.9714 10.7586 15.9714C10.5392 15.9714 10.3287 15.8842 10.1735 15.7291L6.36993 11.9247C6.29309 11.8478 6.23214 11.7566 6.19056 11.6562C6.14898 11.5558 6.12757 11.4482 6.12757 11.3396C6.12757 11.1201 6.21475 10.9097 6.36993 10.7545C6.52511 10.5993 6.73558 10.5121 6.95503 10.5121C7.17449 10.5121 7.38496 10.5993 7.54014 10.7545L10.7586 13.973L16.4599 8.27089C16.5368 8.19406 16.628 8.13312 16.7285 8.09155C16.8289 8.04999 16.9366 8.02862 17.0453 8.02866C17.154 8.02869 17.2616 8.05014 17.362 8.09178C17.4624 8.13341 17.5536 8.19441 17.6305 8.27131C17.7073 8.3482 17.7683 8.43947 17.8098 8.53991C17.8514 8.64035 17.8728 8.748 17.8727 8.8567C17.8727 8.9654 17.8512 9.07303 17.8096 9.17345C17.768 9.27386 17.707 9.36509 17.6301 9.44193V9.44193Z" fill="white"/>
</svg>
