<svg width="22" height="22" viewBox="0 0 22 22" fill="none" xmlns="http://www.w3.org/2000/svg">
  <path d="M12.4023 17.2902L11.5031 17.307L7.91805 19.6836C7.90581 19.6924 7.88883 19.6836 7.88883 19.6685V17.2807H6.13764C4.87006 17.2807 3.8429 16.2534 3.8429 14.986V8.47451C3.8429 7.20715 4.87006 6.17976 6.13764 6.17976H7.89334H14.1288H15.8625C17.1299 6.17976 18.1573 7.20715 18.1573 8.47451V14.986C18.1573 16.2534 17.1299 17.2807 15.8625 17.2807L14.925 17.2902H12.4023Z" stroke="white" stroke-width="2" stroke-miterlimit="10"/>
  <path d="M7.94557 10.3261C8.4419 10.3261 8.84426 9.8751 8.84426 9.31877C8.84426 8.76244 8.4419 8.31145 7.94557 8.31145C7.44923 8.31145 7.04688 8.76244 7.04688 9.31877C7.04688 9.8751 7.44923 10.3261 7.94557 10.3261Z" stroke="white" stroke-width="2" stroke-miterlimit="10"/>
  <path d="M13.2307 10.3261C13.7271 10.3261 14.1294 9.8751 14.1294 9.31877C14.1294 8.76244 13.7271 8.31145 13.2307 8.31145C12.7344 8.31145 12.332 8.76244 12.332 9.31877C12.332 9.8751 12.7344 10.3261 13.2307 10.3261Z" stroke="white" stroke-width="2" stroke-miterlimit="10"/>
  <path d="M18.2018 13.6308V9.95006H19.2004C19.617 9.95006 19.9547 10.2878 19.9547 10.7044V12.8767C19.9547 13.2932 19.617 13.631 19.2004 13.631H18.2018V13.6308ZM2.04532 12.8767V10.7044C2.04532 10.2878 2.38305 9.95006 2.79963 9.95006H3.79823V13.631H2.79963C2.38305 13.6308 2.04532 13.293 2.04532 12.8767ZM13.79 13.0268C13.6058 14.3483 12.4036 15.3686 10.9472 15.3686C9.49116 15.3686 8.28846 14.3483 8.10434 13.0268H13.79Z" stroke="white" stroke-width="2" stroke-miterlimit="10"/>
</svg>
