<svg width="190" height="194" viewBox="0 0 190 194" fill="none" xmlns="http://www.w3.org/2000/svg">
<g clip-path="url(#clip0_7_8)">
<circle cx="92.5" cy="91.5" r="92.5" fill="#F7F7F7"/>
<path d="M118 70.5C118 129 107.479 129 94.5 129C81.5213 129 71 129 71 70.5C71 12 81.5213 12 94.5 12C107.479 12 118 12 118 70.5Z" fill="url(#paint0_radial_7_8)"/>
<path d="M138 109C134.667 120.667 132 144 103 144C103 144 95.6863 144 91 144C60 144 58.3333 120.667 52 109" stroke="url(#paint1_radial_7_8)" stroke-width="12" stroke-linecap="round"/>
<circle cx="95" cy="169" r="14" fill="url(#paint2_radial_7_8)"/>
</g>
<defs>
<radialGradient id="paint0_radial_7_8" cx="0" cy="0" r="1" gradientUnits="userSpaceOnUse" gradientTransform="translate(94 12) rotate(90) scale(91 36.5556)">
<stop stop-color="#013CD7"/>
<stop offset="1" stop-color="#000352"/>
</radialGradient>
<radialGradient id="paint1_radial_7_8" cx="0" cy="0" r="1" gradientUnits="userSpaceOnUse" gradientTransform="translate(57 126) scale(76 186.743)">
<stop stop-color="#010352"/>
<stop offset="1" stop-color="#0136C9"/>
</radialGradient>
<radialGradient id="paint2_radial_7_8" cx="0" cy="0" r="1" gradientUnits="userSpaceOnUse" gradientTransform="translate(95 169) rotate(90) scale(14)">
<stop stop-color="#010352"/>
<stop offset="1" stop-color="#0136CA"/>
</radialGradient>
<clipPath id="clip0_7_8">
<rect width="185" height="184" fill="white"/>
</clipPath>
</defs>
</svg>
