<svg width="50" height="50" viewBox="0 0 50 50" fill="none" xmlns="http://www.w3.org/2000/svg">
<path fill-rule="evenodd" clip-rule="evenodd" d="M23.4375 0C21.7117 0 20.3125 1.39911 20.3125 3.125L19.9372 5.75106C19.6014 8.10233 16.8689 9.23419 14.9687 7.80911L12.8466 6.21747C11.6262 4.99708 9.64758 4.99708 8.42719 6.21747L6.21747 8.42719C4.99708 9.64758 4.99708 11.6262 6.21747 12.8466L7.80908 14.9687C9.23419 16.8689 8.10233 19.6014 5.75103 19.9372L3.125 20.3125C1.39911 20.3125 0 21.7117 0 23.4375V26.5625C0 28.2883 1.39911 29.6875 3.125 29.6875L5.75106 30.0628C8.10236 30.3986 9.23422 33.1311 7.80911 35.0311L6.21747 37.1533C4.99708 38.3739 4.99708 40.3525 6.21747 41.5728L8.42719 43.7825C9.64758 45.0031 11.6262 45.0031 12.8466 43.7825L14.9687 42.1908C16.8689 40.7658 19.6014 41.8978 19.9372 44.2489L20.3125 46.875C20.3125 48.6008 21.7117 50 23.4375 50H26.5625C28.2883 50 29.6875 48.6008 29.6875 46.875L30.0628 44.2489C30.3986 41.8978 33.1311 40.7658 35.0311 42.1908L37.1533 43.7825C38.3739 45.0031 40.3525 45.0031 41.5728 43.7825L43.7825 41.5728C45.0028 40.3525 45.0028 38.3739 43.7825 37.1533L42.1908 35.0311C40.7658 33.1311 41.8978 30.3986 44.2489 30.0628L46.875 29.6875C48.6008 29.6875 50 28.2883 50 26.5625V23.4375C50 21.7117 48.6008 20.3125 46.875 20.3125L44.2489 19.9372C41.8978 19.6014 40.7658 16.8689 42.1908 14.9687L43.7825 12.8466C45.0028 11.6262 45.0028 9.64758 43.7825 8.42719L41.5728 6.21747C40.3525 4.99708 38.3739 4.99708 37.1533 6.21747L35.0311 7.80911C33.1311 9.23419 30.3986 8.10233 30.0628 5.75106L29.6875 3.125C29.6875 1.39911 28.2883 0 26.5625 0H23.4375ZM25 31.25C28.4517 31.25 31.25 28.4517 31.25 25C31.25 21.5483 28.4517 18.75 25 18.75C21.5483 18.75 18.75 21.5483 18.75 25C18.75 28.4517 21.5483 31.25 25 31.25Z" fill="white"/>
</svg>
