<svg width="45" height="45" viewBox="0 0 45 45" fill="none" xmlns="http://www.w3.org/2000/svg">
  <path d="M36.6952 42.0633C35.1958 43.1313 25.5744 36.361 23.7318 36.3462C21.8891 36.3314 12.1595 42.946 10.6775 41.8539C9.19552 40.762 12.6797 29.5454 12.1244 27.7933C11.5691 26.0413 2.25372 18.8582 2.83727 17.1153C3.42083 15.3724 15.1955 15.2104 16.6949 14.1424C18.1944 13.0744 22.1668 2.02044 24.0094 2.03526C25.8521 2.05009 29.6451 13.1666 31.1271 14.2586C32.6091 15.3506 44.3795 15.7019 44.9348 17.454C45.4901 19.2061 36.0596 26.2383 35.4761 27.9812C34.8925 29.7241 38.1947 40.9953 36.6952 42.0633V42.0633Z" fill="url(#paint0_linear_28_2)"/>
  <defs>
    <linearGradient id="paint0_linear_28_2" x1="2.81098" y1="22.1064" x2="44.9584" y2="22.1064" gradientUnits="userSpaceOnUse">
      <stop stop-color="#FCD635"/>
      <stop offset="1" stop-color="#F7A928"/>
    </linearGradient>
  </defs>
</svg>
