<svg width="57" height="57" viewBox="0 0 57 57" fill="none" xmlns="http://www.w3.org/2000/svg">
<path d="M48.6392 8.67246C43.2621 3.32871 36.1037 0.389648 28.5 0.389648C20.8963 0.389648 13.749 3.32871 8.37187 8.67246C2.98359 14.0162 0.0222626 21.1189 0.0222626 28.6781C0.0222626 36.2373 2.98359 43.34 8.37187 48.6838C13.749 54.0164 20.8963 56.9666 28.5 56.9666C36.1037 56.9666 43.251 54.0275 48.6281 48.6838C54.0164 43.34 56.9777 36.2373 56.9777 28.6781C56.9777 21.1189 54.0164 14.0162 48.6392 8.67246V8.67246ZM50.7211 19.5938H40.156C40.1449 19.5604 40.1449 19.527 40.1338 19.4936C39.1096 13.9605 37.6066 9.30703 36.4377 6.17871C42.9058 8.42754 48.116 13.3482 50.7211 19.5938ZM25.2826 5.06543C26.3402 4.9207 27.409 4.85391 28.5 4.85391C29.4018 4.85391 30.2812 4.90957 31.1496 4.99863C32.107 7.21406 34.2557 12.6691 35.6139 19.5938H21.8314C22.9893 11.8898 24.9152 6.13418 25.2826 5.06543ZM4.47539 28.6781C4.47539 27.0973 4.63125 25.5498 4.93183 24.0469H16.8105C16.3986 28.5111 16.3652 32.8084 16.7103 36.8496H5.93379C4.9875 34.3002 4.47539 31.5504 4.47539 28.6781V28.6781ZM8.13808 41.3027H17.267C17.8236 44.6982 18.6586 47.9045 19.7941 50.877C14.9514 49.0066 10.8656 45.6111 8.13808 41.3027V41.3027ZM17.3338 19.5938H6.29004C8.85058 13.4596 13.916 8.6168 20.206 6.3123C19.3711 9.1623 18.1465 13.8715 17.3338 19.5938ZM31.7062 52.2908C30.6598 52.4244 29.591 52.5023 28.5111 52.5023C27.3978 52.5023 26.3068 52.4244 25.2269 52.2797C23.5348 48.7617 22.4437 45.0322 21.798 41.3027H35.8365C35.0461 45.01 33.7324 48.7395 31.7062 52.2908ZM36.5267 36.8496H21.1969C20.785 32.2963 20.9185 27.8988 21.2859 24.0469H36.3375C36.8273 27.91 37.0166 32.3074 36.5267 36.8496V36.8496ZM37.4396 50.799C38.7533 47.8266 39.7441 44.6537 40.3787 41.3027H48.873C46.19 45.5555 42.1822 48.9064 37.4396 50.799ZM41.0244 36.8496L41.0578 36.4488C41.4141 32.5078 41.3361 28.3441 40.824 24.0469H52.0793C52.3799 25.5498 52.5357 27.0973 52.5357 28.6781C52.5357 31.5504 52.0236 34.3002 51.0773 36.8496H41.0244V36.8496Z" fill="white"/>
</svg>
